<svg width="32" height="47" viewBox="0 0 32 47" fill="none" xmlns="http://www.w3.org/2000/svg">
<path d="M18.168 22H8.11328V19.6562L12.7305 13.7852C13.3164 12.9727 13.7461 12.2617 14.0195 11.6523C14.3008 11.0352 14.4414 10.4453 14.4414 9.88281C14.4414 9.125 14.3086 8.53125 14.043 8.10156C13.7852 7.67187 13.4102 7.45703 12.918 7.45703C12.3789 7.45703 11.9492 7.70703 11.6289 8.20703C11.3164 8.70703 11.1602 9.41016 11.1602 10.3164H7.83203C7.83203 9.26953 8.04688 8.3125 8.47656 7.44531C8.91406 6.57812 9.52344 5.90625 10.3047 5.42969C11.0938 4.94531 11.9844 4.70312 12.9766 4.70312C14.5 4.70312 15.6797 5.125 16.5156 5.96875C17.3594 6.80469 17.7812 7.99609 17.7812 9.54297C17.7812 10.5039 17.5469 11.4805 17.0781 12.4727C16.6172 13.457 15.7773 14.6719 14.5586 16.1172L12.3672 19.2461H18.168V22ZM29.928 14.9453C29.928 17.3047 29.4983 19.1094 28.6389 20.3594C27.7873 21.6094 26.5686 22.2344 24.9827 22.2344C23.4123 22.2344 22.1975 21.6289 21.3381 20.418C20.4866 19.1992 20.0452 17.457 20.0139 15.1914V11.9688C20.0139 9.61719 20.4397 7.82031 21.2913 6.57812C22.1428 5.32812 23.3655 4.70312 24.9592 4.70312C26.553 4.70312 27.7756 5.32031 28.6272 6.55469C29.4788 7.78906 29.9123 9.55078 29.928 11.8398V14.9453ZM26.5998 11.4883C26.5998 10.1445 26.467 9.13672 26.2014 8.46484C25.9358 7.79297 25.5217 7.45703 24.9592 7.45703C23.9045 7.45703 23.3577 8.6875 23.3186 11.1484V15.4023C23.3186 16.7773 23.4514 17.8008 23.717 18.4727C23.9905 19.1445 24.4123 19.4805 24.9827 19.4805C25.5217 19.4805 25.9202 19.168 26.178 18.543C26.4436 17.9102 26.5842 16.9453 26.5998 15.6484V11.4883Z" fill="#161722"/>
<path d="M5.14844 31.625H6.58594V39.6797C6.58594 40.7682 6.30729 41.6198 5.75 42.2344C5.19792 42.849 4.45312 43.1562 3.51562 43.1562C2.55208 43.1562 1.80208 42.8646 1.26562 42.2812C0.729167 41.6979 0.460938 40.8906 0.460938 39.8594H1.89062C1.89062 40.5104 2.03385 41.0182 2.32031 41.3828C2.60677 41.7474 3.00521 41.9297 3.51562 41.9297C4.01042 41.9297 4.40625 41.7318 4.70312 41.3359C5 40.9401 5.14844 40.3854 5.14844 39.6719V31.625ZM15.7422 31.625V39.7109C15.7318 40.7891 15.4193 41.6328 14.8047 42.2422C14.1901 42.8516 13.3333 43.1562 12.2344 43.1562C11.1094 43.1562 10.25 42.8594 9.65625 42.2656C9.0625 41.6667 8.76042 40.8151 8.75 39.7109V31.625H10.1719V39.6562C10.1719 40.4219 10.3333 40.9948 10.6562 41.375C10.9844 41.75 11.5104 41.9375 12.2344 41.9375C12.9635 41.9375 13.4896 41.75 13.8125 41.375C14.1406 40.9948 14.3047 40.4219 14.3047 39.6562V31.625H15.7422ZM19.3828 41.7734H23.8438V43H17.9453V31.625H19.3828V41.7734ZM26.6406 37.3359L28.9688 31.625H30.5859L27.3516 38.7578V43H25.9219V38.7578L22.6875 31.625H24.3125L26.6406 37.3359Z" fill="#161722"/>
</svg>
