<svg width="200" height="32" viewBox="0 0 200 32" fill="none" xmlns="http://www.w3.org/2000/svg">
<path d="M6.71484 20.707L10.6172 6.9375H12.9727L7.66406 24H5.78906L0.492188 6.9375H2.83594L6.71484 20.707ZM17.2383 24H15.1641V11.3203H17.2383V24ZM15.0469 7.95703C15.0469 7.60547 15.1445 7.30859 15.3398 7.06641C15.5352 6.82422 15.8281 6.70312 16.2188 6.70312C16.6094 6.70312 16.9023 6.82813 17.0977 7.07812C17.3008 7.32031 17.4023 7.61328 17.4023 7.95703C17.4023 8.30859 17.3047 8.60156 17.1094 8.83594C16.9141 9.07031 16.6172 9.1875 16.2188 9.1875C15.8281 9.1875 15.5352 9.07031 15.3398 8.83594C15.1445 8.60156 15.0469 8.30859 15.0469 7.95703ZM25.043 24.2344C24.2852 24.2344 23.6016 24.1211 22.9922 23.8945C22.3828 23.668 21.8633 23.3242 21.4336 22.8633C21.0117 22.3945 20.6875 21.8047 20.4609 21.0938C20.2344 20.3828 20.1211 19.543 20.1211 18.5742V17.1445C20.1211 16.0273 20.2539 15.0859 20.5195 14.3203C20.7852 13.5469 21.1328 12.9219 21.5625 12.4453C22 11.9609 22.5 11.6133 23.0625 11.4023C23.625 11.1914 24.207 11.0859 24.8086 11.0859C25.6055 11.0859 26.2852 11.2188 26.8477 11.4844C27.4102 11.7422 27.8711 12.125 28.2305 12.6328C28.5898 13.1406 28.8516 13.7656 29.0156 14.5078C29.1797 15.25 29.2617 16.1055 29.2617 17.0742V18.2812H22.1836V18.5742C22.1836 19.9336 22.4375 20.9219 22.9453 21.5391C23.4609 22.1562 24.1992 22.4648 25.1602 22.4648C25.5117 22.4648 25.8281 22.4297 26.1094 22.3594C26.3906 22.2891 26.6484 22.1914 26.8828 22.0664C27.1172 21.9336 27.332 21.7812 27.5273 21.6094C27.7227 21.4297 27.9062 21.2344 28.0781 21.0234L29.1562 22.3359C28.9844 22.5781 28.7773 22.8125 28.5352 23.0391C28.293 23.2656 28.0039 23.4688 27.668 23.6484C27.332 23.8203 26.9453 23.9609 26.5078 24.0703C26.0781 24.1797 25.5898 24.2344 25.043 24.2344ZM24.8086 12.8672C24.4492 12.8672 24.1172 12.9219 23.8125 13.0312C23.5078 13.1406 23.2383 13.3359 23.0039 13.6172C22.7773 13.8906 22.5938 14.2617 22.4531 14.7305C22.3125 15.1992 22.2266 15.7891 22.1953 16.5H27.1875V16.2188C27.1641 15.7266 27.1094 15.2773 27.0234 14.8711C26.9453 14.457 26.8164 14.1016 26.6367 13.8047C26.4648 13.5078 26.2305 13.2773 25.9336 13.1133C25.6367 12.9492 25.2617 12.8672 24.8086 12.8672ZM41.2148 20.3555L43.1367 11.3203H45.1875L42.082 24H40.4297L37.957 14.9297L35.543 24H33.8789L30.7969 11.3203H32.8359L34.8047 20.1328L37.1602 11.3203H38.8008L41.2148 20.3555ZM59.4023 24C59.332 23.8438 59.2734 23.6445 59.2266 23.4023C59.1875 23.1523 59.1562 22.8906 59.1328 22.6172C58.9844 22.8359 58.8125 23.043 58.6172 23.2383C58.4297 23.4336 58.2148 23.6055 57.9727 23.7539C57.7383 23.9023 57.4805 24.0195 57.1992 24.1055C56.9258 24.1914 56.6328 24.2344 56.3203 24.2344C55.7656 24.2344 55.2617 24.1562 54.8086 24C54.3633 23.8438 53.9805 23.6094 53.6602 23.2969C53.3398 22.9844 53.0938 22.6016 52.9219 22.1484C52.75 21.6875 52.6641 21.1523 52.6641 20.543C52.6641 19.9336 52.7695 19.3711 52.9805 18.8555C53.1914 18.3398 53.5039 17.8945 53.918 17.5195C54.332 17.1445 54.8516 16.8516 55.4766 16.6406C56.1016 16.4219 56.8281 16.3125 57.6562 16.3125H59.0977V14.9648C59.0977 14.207 58.9297 13.668 58.5938 13.3477C58.2578 13.0273 57.7461 12.8672 57.0586 12.8672C56.7227 12.8672 56.4219 12.9219 56.1562 13.0312C55.8984 13.1328 55.6797 13.2734 55.5 13.4531C55.3203 13.6328 55.1836 13.8438 55.0898 14.0859C54.9961 14.3203 54.9492 14.5703 54.9492 14.8359H52.875C52.875 14.3828 52.9727 13.9336 53.168 13.4883C53.3711 13.0352 53.6562 12.6328 54.0234 12.2812C54.3984 11.9219 54.8516 11.6328 55.3828 11.4141C55.9141 11.1953 56.5078 11.0859 57.1641 11.0859C57.75 11.0859 58.2852 11.1562 58.7695 11.2969C59.2617 11.4375 59.6836 11.6641 60.0352 11.9766C60.3945 12.2891 60.6719 12.6914 60.8672 13.1836C61.0625 13.6758 61.1602 14.2773 61.1602 14.9883V21.2344C61.1602 21.4453 61.168 21.668 61.1836 21.9023C61.1992 22.1367 61.2227 22.3672 61.2539 22.5938C61.293 22.8203 61.3359 23.0391 61.3828 23.25C61.4375 23.4531 61.4961 23.6406 61.5586 23.8125V24H59.4023ZM56.6367 22.3477C56.9258 22.3477 57.1992 22.3047 57.457 22.2188C57.7148 22.1328 57.9492 22.0234 58.1602 21.8906C58.3711 21.75 58.5547 21.5938 58.7109 21.4219C58.875 21.2422 59.0039 21.0586 59.0977 20.8711V17.8477H58.0078C57.5078 17.8477 57.0547 17.9023 56.6484 18.0117C56.25 18.1211 55.9062 18.2812 55.6172 18.4922C55.3359 18.6953 55.1172 18.9492 54.9609 19.2539C54.8125 19.5586 54.7383 19.9062 54.7383 20.2969C54.7383 20.6797 54.7773 21.0039 54.8555 21.2695C54.9336 21.5273 55.0508 21.7383 55.207 21.9023C55.3633 22.0586 55.5586 22.1719 55.793 22.2422C56.0352 22.3125 56.3164 22.3477 56.6367 22.3477ZM66.6211 24H64.5469V6H66.6211V24ZM72.1289 24H70.0547V6H72.1289V24ZM88.6523 19.6875C88.6523 19.2891 88.6055 18.9375 88.5117 18.6328C88.4258 18.3281 88.2617 18.0508 88.0195 17.8008C87.7773 17.543 87.4492 17.3047 87.0352 17.0859C86.6211 16.8594 86.0859 16.6289 85.4297 16.3945C84.7266 16.1523 84.0898 15.8789 83.5195 15.5742C82.9492 15.2617 82.4609 14.9062 82.0547 14.5078C81.6562 14.1016 81.3477 13.6406 81.1289 13.125C80.9102 12.6094 80.8008 12.0195 80.8008 11.3555C80.8008 10.6914 80.9141 10.0781 81.1406 9.51562C81.375 8.94531 81.7031 8.45312 82.125 8.03906C82.5547 7.61719 83.0703 7.28906 83.6719 7.05469C84.2812 6.82031 84.957 6.70312 85.6992 6.70312C86.5273 6.70312 87.2578 6.84766 87.8906 7.13672C88.5312 7.42578 89.0664 7.80859 89.4961 8.28516C89.9336 8.76172 90.2617 9.3125 90.4805 9.9375C90.6992 10.5625 90.8086 11.207 90.8086 11.8711H88.6523C88.6523 11.3945 88.5938 10.9531 88.4766 10.5469C88.3672 10.1406 88.1914 9.78906 87.9492 9.49219C87.707 9.19531 87.3984 8.96484 87.0234 8.80078C86.6562 8.63672 86.2148 8.55469 85.6992 8.55469C85.2227 8.55469 84.8125 8.625 84.4688 8.76562C84.125 8.90625 83.8398 9.10156 83.6133 9.35156C83.3945 9.59375 83.2305 9.88281 83.1211 10.2188C83.0195 10.5547 82.9688 10.9219 82.9688 11.3203C82.9688 12.0391 83.2266 12.6406 83.7422 13.125C84.2578 13.6094 85.0547 14.043 86.1328 14.4258C86.9609 14.6992 87.6719 15.0039 88.2656 15.3398C88.8594 15.668 89.3438 16.043 89.7188 16.4648C90.1016 16.8867 90.3789 17.3594 90.5508 17.8828C90.7305 18.4062 90.8203 19 90.8203 19.6641C90.8203 20.3594 90.7031 20.9883 90.4688 21.5508C90.2344 22.1133 89.8984 22.5938 89.4609 22.9922C89.0312 23.3906 88.5078 23.6992 87.8906 23.918C87.2734 24.1289 86.5781 24.2344 85.8047 24.2344C85.1328 24.2344 84.4688 24.125 83.8125 23.9062C83.1641 23.6875 82.582 23.3633 82.0664 22.9336C81.5586 22.4961 81.1445 21.9531 80.8242 21.3047C80.5117 20.6562 80.3555 19.9062 80.3555 19.0547H82.5117C82.5117 19.6406 82.5977 20.1445 82.7695 20.5664C82.9414 20.9805 83.1758 21.3242 83.4727 21.5977C83.7773 21.8711 84.1289 22.0742 84.5273 22.207C84.9258 22.332 85.3516 22.3945 85.8047 22.3945C86.75 22.3945 87.4609 22.1523 87.9375 21.668C88.4141 21.1836 88.6523 20.5234 88.6523 19.6875ZM97.8867 24.2344C97.1289 24.2344 96.4453 24.1211 95.8359 23.8945C95.2266 23.668 94.707 23.3242 94.2773 22.8633C93.8555 22.3945 93.5312 21.8047 93.3047 21.0938C93.0781 20.3828 92.9648 19.543 92.9648 18.5742V17.1445C92.9648 16.0273 93.0977 15.0859 93.3633 14.3203C93.6289 13.5469 93.9766 12.9219 94.4062 12.4453C94.8438 11.9609 95.3438 11.6133 95.9062 11.4023C96.4688 11.1914 97.0508 11.0859 97.6523 11.0859C98.4492 11.0859 99.1289 11.2188 99.6914 11.4844C100.254 11.7422 100.715 12.125 101.074 12.6328C101.434 13.1406 101.695 13.7656 101.859 14.5078C102.023 15.25 102.105 16.1055 102.105 17.0742V18.2812H95.0273V18.5742C95.0273 19.9336 95.2812 20.9219 95.7891 21.5391C96.3047 22.1562 97.043 22.4648 98.0039 22.4648C98.3555 22.4648 98.6719 22.4297 98.9531 22.3594C99.2344 22.2891 99.4922 22.1914 99.7266 22.0664C99.9609 21.9336 100.176 21.7812 100.371 21.6094C100.566 21.4297 100.75 21.2344 100.922 21.0234L102 22.3359C101.828 22.5781 101.621 22.8125 101.379 23.0391C101.137 23.2656 100.848 23.4688 100.512 23.6484C100.176 23.8203 99.7891 23.9609 99.3516 24.0703C98.9219 24.1797 98.4336 24.2344 97.8867 24.2344ZM97.6523 12.8672C97.293 12.8672 96.9609 12.9219 96.6562 13.0312C96.3516 13.1406 96.082 13.3359 95.8477 13.6172C95.6211 13.8906 95.4375 14.2617 95.2969 14.7305C95.1562 15.1992 95.0703 15.7891 95.0391 16.5H100.031V16.2188C100.008 15.7266 99.9531 15.2773 99.8672 14.8711C99.7891 14.457 99.6602 14.1016 99.4805 13.8047C99.3086 13.5078 99.0742 13.2773 98.7773 13.1133C98.4805 12.9492 98.1055 12.8672 97.6523 12.8672ZM109.84 13.2656C109.676 13.2344 109.523 13.2148 109.383 13.207C109.242 13.1914 109.082 13.1836 108.902 13.1836C108.34 13.1836 107.875 13.3398 107.508 13.6523C107.148 13.9648 106.871 14.3906 106.676 14.9297V24H104.602V11.3203H106.617L106.652 12.6094C106.91 12.1406 107.23 11.7695 107.613 11.4961C108.004 11.2227 108.469 11.0859 109.008 11.0859C109.07 11.0859 109.141 11.0938 109.219 11.1094C109.305 11.1172 109.387 11.1289 109.465 11.1445C109.543 11.1602 109.613 11.1797 109.676 11.2031C109.746 11.2188 109.797 11.2344 109.828 11.25L109.84 13.2656ZM113.871 11.3203L113.918 12.4922C114.285 12.0469 114.719 11.7031 115.219 11.4609C115.727 11.2109 116.312 11.0859 116.977 11.0859C117.617 11.0859 118.195 11.2305 118.711 11.5195C119.234 11.8086 119.645 12.2773 119.941 12.9258C120.301 12.3711 120.754 11.9258 121.301 11.5898C121.855 11.2539 122.512 11.0859 123.27 11.0859C123.84 11.0859 124.348 11.1758 124.793 11.3555C125.238 11.5273 125.613 11.8008 125.918 12.1758C126.223 12.5508 126.453 13.0273 126.609 13.6055C126.773 14.1836 126.855 14.8711 126.855 15.668V24H124.793V15.6562C124.793 15.125 124.742 14.6836 124.641 14.332C124.539 13.9805 124.395 13.6992 124.207 13.4883C124.02 13.2773 123.793 13.1328 123.527 13.0547C123.262 12.9688 122.965 12.9258 122.637 12.9258C122.309 12.9258 122.016 12.9922 121.758 13.125C121.5 13.2578 121.277 13.4414 121.09 13.6758C120.91 13.9102 120.762 14.1836 120.645 14.4961C120.535 14.8086 120.465 15.1445 120.434 15.5039V15.5625V24H118.348V15.668C118.348 15.1758 118.297 14.7578 118.195 14.4141C118.102 14.0625 117.961 13.7773 117.773 13.5586C117.586 13.3398 117.359 13.1797 117.094 13.0781C116.828 12.9766 116.531 12.9258 116.203 12.9258C115.625 12.9258 115.16 13.0703 114.809 13.3594C114.457 13.6406 114.184 14.0195 113.988 14.4961V24H111.926V11.3203H113.871ZM129.551 17.0742C129.551 16.082 129.676 15.2148 129.926 14.4727C130.184 13.7227 130.531 13.0977 130.969 12.5977C131.414 12.0977 131.934 11.7227 132.527 11.4727C133.121 11.2148 133.758 11.0859 134.438 11.0859C135.125 11.0859 135.77 11.2148 136.371 11.4727C136.973 11.7227 137.492 12.0977 137.93 12.5977C138.375 13.0977 138.723 13.7227 138.973 14.4727C139.23 15.2148 139.359 16.082 139.359 17.0742V18.2695C139.359 19.2539 139.23 20.1211 138.973 20.8711C138.723 21.6133 138.375 22.2344 137.93 22.7344C137.492 23.2344 136.977 23.6094 136.383 23.8594C135.789 24.1094 135.148 24.2344 134.461 24.2344C133.773 24.2344 133.129 24.1094 132.527 23.8594C131.934 23.6094 131.414 23.2344 130.969 22.7344C130.531 22.2344 130.184 21.6133 129.926 20.8711C129.676 20.1211 129.551 19.2539 129.551 18.2695V17.0742ZM131.625 18.2695C131.625 18.9727 131.695 19.5859 131.836 20.1094C131.984 20.6328 132.184 21.0703 132.434 21.4219C132.691 21.7656 132.992 22.0273 133.336 22.207C133.68 22.3789 134.055 22.4648 134.461 22.4648C136.344 22.4648 137.285 21.0664 137.285 18.2695V17.0742C137.285 16.3789 137.211 15.7695 137.062 15.2461C136.922 14.7227 136.723 14.2852 136.465 13.9336C136.215 13.582 135.914 13.3164 135.562 13.1367C135.219 12.957 134.844 12.8672 134.438 12.8672C134.039 12.8672 133.668 12.957 133.324 13.1367C132.98 13.3164 132.684 13.582 132.434 13.9336C132.184 14.2852 131.984 14.7227 131.836 15.2461C131.695 15.7695 131.625 16.3789 131.625 17.0742V18.2695ZM143.988 11.3203L144.047 12.6914C144.43 12.1836 144.879 11.7891 145.395 11.5078C145.918 11.2266 146.496 11.0859 147.129 11.0859C147.645 11.0859 148.113 11.1719 148.535 11.3438C148.957 11.5078 149.316 11.7773 149.613 12.1523C149.91 12.5195 150.137 12.9961 150.293 13.582C150.457 14.1602 150.539 14.8633 150.539 15.6914V24H148.477V15.668C148.477 14.6758 148.309 13.9727 147.973 13.5586C147.645 13.1367 147.148 12.9258 146.484 12.9258C145.969 12.9258 145.504 13.0977 145.09 13.4414C144.684 13.7852 144.355 14.2344 144.105 14.7891V24H142.031V11.3203H143.988ZM159.82 20.7539C159.82 20.5195 159.777 20.3086 159.691 20.1211C159.605 19.9258 159.465 19.7422 159.27 19.5703C159.074 19.3906 158.82 19.2148 158.508 19.043C158.203 18.8711 157.824 18.6836 157.371 18.4805C156.785 18.2383 156.258 18 155.789 17.7656C155.328 17.5312 154.938 17.2734 154.617 16.9922C154.305 16.7031 154.062 16.375 153.891 16.0078C153.727 15.6328 153.645 15.1914 153.645 14.6836C153.645 14.1836 153.738 13.7148 153.926 13.2773C154.121 12.8398 154.395 12.4609 154.746 12.1406C155.098 11.8125 155.52 11.5547 156.012 11.3672C156.504 11.1797 157.055 11.0859 157.664 11.0859C158.305 11.0859 158.879 11.1836 159.387 11.3789C159.895 11.5742 160.324 11.8477 160.676 12.1992C161.027 12.543 161.297 12.9492 161.484 13.418C161.672 13.8867 161.766 14.3906 161.766 14.9297H159.703C159.703 14.6719 159.656 14.4219 159.562 14.1797C159.477 13.9297 159.344 13.707 159.164 13.5117C158.992 13.3164 158.781 13.1602 158.531 13.043C158.281 12.9258 157.992 12.8672 157.664 12.8672C157.312 12.8672 157.012 12.918 156.762 13.0195C156.52 13.1133 156.32 13.2422 156.164 13.4062C156.008 13.5625 155.891 13.7461 155.812 13.957C155.742 14.168 155.707 14.3867 155.707 14.6133C155.707 14.8477 155.738 15.0508 155.801 15.2227C155.871 15.3867 155.988 15.543 156.152 15.6914C156.316 15.8398 156.539 15.9883 156.82 16.1367C157.109 16.2852 157.477 16.457 157.922 16.6523C158.562 16.9023 159.129 17.1562 159.621 17.4141C160.121 17.6641 160.539 17.9414 160.875 18.2461C161.211 18.543 161.465 18.8828 161.637 19.2656C161.809 19.6484 161.895 20.0938 161.895 20.6016C161.895 21.1562 161.793 21.6602 161.59 22.1133C161.395 22.5586 161.113 22.9414 160.746 23.2617C160.379 23.5742 159.938 23.8164 159.422 23.9883C158.906 24.1523 158.336 24.2344 157.711 24.2344C156.992 24.2344 156.355 24.125 155.801 23.9062C155.246 23.6797 154.781 23.3828 154.406 23.0156C154.031 22.6406 153.746 22.2109 153.551 21.7266C153.363 21.2422 153.27 20.7383 153.27 20.2148H155.355C155.371 20.6602 155.453 21.0273 155.602 21.3164C155.75 21.6055 155.934 21.8359 156.152 22.0078C156.379 22.1797 156.629 22.3008 156.902 22.3711C157.176 22.4336 157.445 22.4648 157.711 22.4648C158.398 22.4648 158.922 22.3125 159.281 22.0078C159.641 21.6953 159.82 21.2773 159.82 20.7539Z" fill="#161722"/>
<path d="M199.707 18.7071C200.098 18.3166 200.098 17.6834 199.707 17.2929L193.343 10.9289C192.953 10.5384 192.319 10.5384 191.929 10.9289C191.538 11.3195 191.538 11.9526 191.929 12.3431L197.586 18L191.929 23.6569C191.538 24.0474 191.538 24.6805 191.929 25.0711C192.319 25.4616 192.953 25.4616 193.343 25.0711L199.707 18.7071ZM175 19L199 19L199 17L175 17L175 19Z" fill="#161722"/>
</svg>
